# xmcd CD database file
#
# Track frame offsets:
#	150
#	13201
#	26731
#	38347
#	48862
#	61943
#	82706
#	97265
#	108999
#	123665
#	131634
#	147719
#	168992
#	180978
#	200372
#	212190
#	234754
#	249851
#	260738
#
# Disc length: 3854 seconds
#
# Revision: 0
# Processed by: cddbd v1.5.2PL0 Copyright (c) Steve Scherf et al.
# Submitted via: CDex 1.51
#
DISCID=020f0c13
DTITLE=Lewis, Ramsey - Complete Recordings 1960-1962, CD4
DYEAR=1900
DGENRE=Jazz
TTITLE0=Your Cheatin' Heart
TTITLE1=St. Louis Blues
TTITLE2=Blueberry Hill
TTITLE3=Country Meets The Blues
TTITLE4=Memphis In June
TTITLE5=High Noon
TTITLE6=I Need You So
TTITLE7=I Just Want To Make Love To You
TTITLE8=Tangleweed'round My Heart
TTITLE9=My Bucket's Got A Hole In It
TTITLE10=Samba De Orpheus
TTITLE11=Maha De Carnaval
TTITLE12=As Criancinhas
TTITLE13=A Noite Du Meu Bem
TTITLE14=O Pato
TTITLE15=Generique
TTITLE16=Roda Moinho
TTITLE17=Cara De Palhaco
TTITLE18=Conacao Para Geralda
EXTD=
EXTT0=
EXTT1=
EXTT2=
EXTT3=
EXTT4=
EXTT5=
EXTT6=
EXTT7=
EXTT8=
EXTT9=
EXTT10=
EXTT11=
EXTT12=
EXTT13=
EXTT14=
EXTT15=
EXTT16=
EXTT17=
EXTT18=
PLAYORDER=
